<mxfile host="65bd71144e">
    <diagram id="sHc_wFPXRGP4sv5DglS8" name="Page-1">
        <mxGraphModel dx="1228" dy="116" grid="0" gridSize="10" guides="1" tooltips="1" connect="1" arrows="1" fold="1" page="1" pageScale="1" pageWidth="827" pageHeight="1169" math="0" shadow="0">
            <root>
                <mxCell id="0"/>
                <mxCell id="1" parent="0"/>
                <mxCell id="gdwEVVasBqk_ZRCRB2Q2-10" style="edgeStyle=orthogonalEdgeStyle;rounded=0;orthogonalLoop=1;jettySize=auto;html=1;entryX=0;entryY=0.5;entryDx=0;entryDy=0;movable=1;resizable=1;rotatable=1;deletable=1;editable=1;locked=0;connectable=1;fontStyle=1" parent="1" source="gdwEVVasBqk_ZRCRB2Q2-11" target="gdwEVVasBqk_ZRCRB2Q2-17" edge="1">
                    <mxGeometry relative="1" as="geometry">
                        <Array as="points">
                            <mxPoint x="241.5" y="1440"/>
                            <mxPoint x="241.5" y="1352"/>
                        </Array>
                    </mxGeometry>
                </mxCell>
                <mxCell id="gdwEVVasBqk_ZRCRB2Q2-11" value="訓練データ" style="shape=cylinder3;whiteSpace=wrap;html=1;boundedLbl=1;backgroundOutline=1;size=9.620714911099185;movable=1;resizable=1;rotatable=1;deletable=1;editable=1;locked=0;connectable=1;" parent="1" vertex="1">
                    <mxGeometry x="116.5" y="1397" width="90" height="65" as="geometry"/>
                </mxCell>
                <mxCell id="gdwEVVasBqk_ZRCRB2Q2-12" style="edgeStyle=orthogonalEdgeStyle;rounded=0;orthogonalLoop=1;jettySize=auto;html=1;entryX=0;entryY=0.5;entryDx=0;entryDy=0;movable=1;resizable=1;rotatable=1;deletable=1;editable=1;locked=0;connectable=1;fontStyle=1" parent="1" source="gdwEVVasBqk_ZRCRB2Q2-13" target="gdwEVVasBqk_ZRCRB2Q2-17" edge="1">
                    <mxGeometry relative="1" as="geometry"/>
                </mxCell>
                <mxCell id="gdwEVVasBqk_ZRCRB2Q2-13" value="" style="sketch=0;outlineConnect=0;fontColor=#232F3E;gradientColor=none;fillColor=#232F3D;strokeColor=none;dashed=0;verticalLabelPosition=bottom;verticalAlign=top;align=center;html=1;fontSize=12;fontStyle=0;aspect=fixed;pointerEvents=1;shape=mxgraph.aws4.gear;movable=1;resizable=1;rotatable=1;deletable=1;editable=1;locked=0;connectable=1;" parent="1" vertex="1">
                    <mxGeometry x="111.5" y="1272" width="88" height="88" as="geometry"/>
                </mxCell>
                <mxCell id="gdwEVVasBqk_ZRCRB2Q2-14" value="" style="shape=mxgraph.signs.healthcare.brain;html=1;pointerEvents=1;fillColor=#000000;strokeColor=none;verticalLabelPosition=bottom;verticalAlign=top;align=center;movable=1;resizable=1;rotatable=1;deletable=1;editable=1;locked=0;connectable=1;" parent="1" vertex="1">
                    <mxGeometry x="431.5" y="1321" width="80" height="70" as="geometry"/>
                </mxCell>
                <mxCell id="gdwEVVasBqk_ZRCRB2Q2-15" value="アルゴリズム" style="text;html=1;align=center;verticalAlign=middle;resizable=1;points=[];autosize=1;strokeColor=none;fillColor=none;movable=1;rotatable=1;deletable=1;editable=1;locked=0;connectable=1;" parent="1" vertex="1">
                    <mxGeometry x="111.5" y="1242" width="100" height="30" as="geometry"/>
                </mxCell>
                <mxCell id="gdwEVVasBqk_ZRCRB2Q2-16" value="学習済みモデル" style="text;html=1;align=center;verticalAlign=middle;resizable=1;points=[];autosize=1;strokeColor=none;fillColor=none;movable=1;rotatable=1;deletable=1;editable=1;locked=0;connectable=1;" parent="1" vertex="1">
                    <mxGeometry x="420.5" y="1289" width="110" height="30" as="geometry"/>
                </mxCell>
                <mxCell id="gdwEVVasBqk_ZRCRB2Q2-17" value="学習" style="shape=process;whiteSpace=wrap;html=1;backgroundOutline=1;movable=1;resizable=1;rotatable=1;deletable=1;editable=1;locked=0;connectable=1;" parent="1" vertex="1">
                    <mxGeometry x="285.5" y="1322" width="90" height="60" as="geometry"/>
                </mxCell>
                <mxCell id="gdwEVVasBqk_ZRCRB2Q2-18" style="edgeStyle=orthogonalEdgeStyle;rounded=0;orthogonalLoop=1;jettySize=auto;html=1;exitX=1;exitY=0.5;exitDx=0;exitDy=0;entryX=-0.044;entryY=0.438;entryDx=0;entryDy=0;entryPerimeter=0;movable=1;resizable=1;rotatable=1;deletable=1;editable=1;locked=0;connectable=1;fontStyle=1" parent="1" source="gdwEVVasBqk_ZRCRB2Q2-17" target="gdwEVVasBqk_ZRCRB2Q2-14" edge="1">
                    <mxGeometry relative="1" as="geometry">
                        <mxPoint x="391.5" y="1426" as="sourcePoint"/>
                        <mxPoint x="421.5" y="1392" as="targetPoint"/>
                    </mxGeometry>
                </mxCell>
                <mxCell id="wrHmRAw8vj289W4iR1oa-15" style="edgeStyle=orthogonalEdgeStyle;rounded=0;orthogonalLoop=1;jettySize=auto;html=1;entryX=0.091;entryY=0.589;entryDx=0;entryDy=0;entryPerimeter=0;movable=1;resizable=1;rotatable=1;deletable=1;editable=1;locked=0;connectable=1;fontStyle=1" parent="1" source="wrHmRAw8vj289W4iR1oa-1" target="wrHmRAw8vj289W4iR1oa-12" edge="1">
                    <mxGeometry relative="1" as="geometry"/>
                </mxCell>
                <mxCell id="wrHmRAw8vj289W4iR1oa-1" value="" style="shape=mxgraph.signs.healthcare.brain;html=1;pointerEvents=1;fillColor=#000000;strokeColor=none;verticalLabelPosition=bottom;verticalAlign=top;align=center;movable=1;resizable=1;rotatable=1;deletable=1;editable=1;locked=0;connectable=1;" parent="1" vertex="1">
                    <mxGeometry x="292.5" y="1609" width="80" height="70" as="geometry"/>
                </mxCell>
                <mxCell id="wrHmRAw8vj289W4iR1oa-2" value="学習済みモデル" style="text;html=1;align=center;verticalAlign=middle;resizable=1;points=[];autosize=1;strokeColor=none;fillColor=none;movable=1;rotatable=1;deletable=1;editable=1;locked=0;connectable=1;" parent="1" vertex="1">
                    <mxGeometry x="275.5" y="1576" width="110" height="30" as="geometry"/>
                </mxCell>
                <mxCell id="wrHmRAw8vj289W4iR1oa-3" value="学習フェーズ" style="rounded=1;whiteSpace=wrap;html=1;movable=1;resizable=1;rotatable=1;deletable=1;editable=1;locked=0;connectable=1;" parent="1" vertex="1">
                    <mxGeometry x="49" y="1197" width="154" height="34" as="geometry"/>
                </mxCell>
                <mxCell id="wrHmRAw8vj289W4iR1oa-4" value="推論フェーズ" style="rounded=1;whiteSpace=wrap;html=1;movable=1;resizable=1;rotatable=1;deletable=1;editable=1;locked=0;connectable=1;" parent="1" vertex="1">
                    <mxGeometry x="49" y="1543" width="154" height="34" as="geometry"/>
                </mxCell>
                <mxCell id="wrHmRAw8vj289W4iR1oa-14" style="edgeStyle=orthogonalEdgeStyle;rounded=0;orthogonalLoop=1;jettySize=auto;html=1;entryX=0.015;entryY=0.5;entryDx=0;entryDy=0;entryPerimeter=0;movable=1;resizable=1;rotatable=1;deletable=1;editable=1;locked=0;connectable=1;fontStyle=1" parent="1" source="wrHmRAw8vj289W4iR1oa-11" target="wrHmRAw8vj289W4iR1oa-1" edge="1">
                    <mxGeometry relative="1" as="geometry"/>
                </mxCell>
                <mxCell id="wrHmRAw8vj289W4iR1oa-11" value="推論用データ" style="strokeWidth=2;html=1;shape=mxgraph.flowchart.multi-document;whiteSpace=wrap;movable=1;resizable=1;rotatable=1;deletable=1;editable=1;locked=0;connectable=1;" parent="1" vertex="1">
                    <mxGeometry x="97" y="1611" width="112" height="67" as="geometry"/>
                </mxCell>
                <mxCell id="wrHmRAw8vj289W4iR1oa-12" value="予測結果" style="shape=parallelogram;perimeter=parallelogramPerimeter;whiteSpace=wrap;html=1;dashed=0;movable=1;resizable=1;rotatable=1;deletable=1;editable=1;locked=0;connectable=1;" parent="1" vertex="1">
                    <mxGeometry x="472" y="1614" width="100" height="50" as="geometry"/>
                </mxCell>
            </root>
        </mxGraphModel>
    </diagram>
</mxfile>